<?xml version="1.0" encoding="UTF-8" standalone="no"?>
<!-- Created with Inkscape (http://www.inkscape.org/) -->

<svg
   width="16"
   height="16"
   viewBox="0 0 16 16"
   version="1.1"
   id="svg1"
   xml:space="preserve"
   xmlns:inkscape="http://www.inkscape.org/namespaces/inkscape"
   xmlns:sodipodi="http://sodipodi.sourceforge.net/DTD/sodipodi-0.dtd"
   xmlns="http://www.w3.org/2000/svg"
   xmlns:svg="http://www.w3.org/2000/svg"><sodipodi:namedview
     id="namedview1"
     pagecolor="#505050"
     bordercolor="#ffffff"
     borderopacity="1"
     inkscape:showpageshadow="0"
     inkscape:pageopacity="0"
     inkscape:pagecheckerboard="1"
     inkscape:deskcolor="#d1d1d1"
     inkscape:document-units="px" /><defs
     id="defs1" /><g
     inkscape:label="Layer 1"
     inkscape:groupmode="layer"
     id="layer1"><path
       d="M 9.1619218,6.2282374 C 8.7009341,6.3537319 8.3619592,6.7753205 8.3619592,7.276081 v 1.447838 c 0,0.8941487 -0.6484505,1.636853 -1.5007202,1.78352 -0.1413813,0.435401 -0.5504318,0.750197 -1.0329962,0.750197 -0.5997305,0 -1.0858784,-0.486149 -1.0858784,-1.085879 0,-0.5997309 0.4861479,-1.0858786 1.0858784,-1.0858786 0.4584579,0 0.8505686,0.284102 1.0098308,0.6858772 C 7.2990653,9.6462642 7.6380402,9.22469 7.6380402,8.723919 V 7.2760809 c 0,-0.4074254 0.1346128,-0.7834033 0.3618146,-1.0858788 h -1.14752 c -0.1490549,0.4217518 -0.5513005,0.7239191 -1.024092,0.7239191 -0.5997305,0 -1.0858784,-0.486166 -1.0858784,-1.0858785 0,-0.5997127 0.4861479,-1.0858784 1.0858784,-1.0858784 0.4727915,0 0.8750371,0.3021677 1.024092,0.7239185 H 9.147668 C 9.2967338,5.044532 9.6989583,4.7423644 10.171757,4.7423644 c 0.599713,0 1.085879,0.4861656 1.085879,1.0858783 0,0.5997125 -0.486166,1.0858785 -1.085879,1.0858785 -0.4584618,0 -0.8505617,-0.2841161 -1.0098352,-0.6858838 z M 9.809798,5.8282427 c 0,0.1999035 0.1620558,0.3619593 0.361959,0.3619593 0.199903,0 0.36196,-0.1620561 0.36196,-0.3619593 0,-0.1999032 -0.162057,-0.3619598 -0.36196,-0.3619598 -0.1999032,0 -0.361959,0.1620566 -0.361959,0.3619598 z m -4.3435147,0 c 0,0.1999035 0.1620493,0.3619593 0.3619595,0.3619593 0.1999103,0 0.3619595,-0.1620561 0.3619595,-0.3619593 0,-0.1999032 -0.1620492,-0.3619598 -0.3619595,-0.3619598 -0.1999101,0 -0.3619595,0.1620566 -0.3619595,0.3619598 z m 0,4.3435143 c 0,0.199911 0.1620493,0.36196 0.3619595,0.36196 0.1999103,0 0.3619595,-0.162049 0.3619595,-0.36196 0,-0.1999104 -0.1620492,-0.3619595 -0.3619595,-0.3619595 -0.1999101,0 -0.3619595,0.162049 -0.3619595,0.3619595 z"
       id="path1"
       style="stroke-width:0.361959" /><path
       d="m 8.0000002,13.687491 h 5.6874918 v 1.421874 H 8.0000002 c -3.9263957,0 -7.10936495,-3.183006 -7.10936495,-7.1093656 0,-3.9263952 3.18296925,-7.1093645 7.10936495,-7.1093645 3.9263598,0 7.1093648,3.1829693 7.1093648,7.1093645 0,1.6004607 -0.528865,3.0774306 -1.421375,4.2656186 h -1.925998 c 1.180795,-1.042161 1.9255,-2.5669069 1.9255,-4.2656186 0,-3.1411161 -2.546361,-5.6874915 -5.6874918,-5.6874915 -3.1411166,0 -5.687492,2.5463754 -5.687492,5.6874915 0,3.1411306 2.5463754,5.6874916 5.687492,5.6874916 z"
       id="path1-6"
       style="stroke-width:0.710936"
       sodipodi:nodetypes="sccssssccssss" /></g></svg>
